<svg width="44" height="44" viewBox="0 0 44 44" fill="none" xmlns="http://www.w3.org/2000/svg">
<path d="M44 22.033C43.999 21.7175 43.9917 21.4037 43.9775 21.0914V3.28657L39.0552 8.20886C35.0266 3.27767 28.898 0.128052 22.0335 0.128052C14.8898 0.128052 8.54333 3.53789 4.53148 8.81858L12.5997 16.9717C13.3904 15.5094 14.5137 14.2534 15.868 13.3047C17.2766 12.2055 19.2724 11.3068 22.0333 11.3068C22.3668 11.3068 22.6242 11.3457 22.8134 11.4192C26.2341 11.6892 29.1991 13.577 30.945 16.317L25.2339 22.028C32.4677 21.9997 40.6397 21.983 43.9994 22.0317" fill="#1C3AA9"/>
<path d="M21.9049 0C21.5894 0.00104762 21.2756 0.00832857 20.9633 0.0224714H3.15852L8.08081 4.94476C3.14961 8.97338 0 15.102 0 21.9665C0 29.1102 3.4099 35.4567 8.69052 39.4685L16.8436 31.4003C15.3813 30.6096 14.1253 29.4863 13.1767 28.132C12.0775 26.7234 11.1787 24.7276 11.1787 21.9667C11.1787 21.6332 11.2177 21.3758 11.2911 21.1866C11.5611 17.7659 13.4489 14.8009 16.1889 13.055L21.9 18.7661C21.8716 11.5323 21.8549 3.36034 21.9037 0.000628571" fill="#4285F4"/>
<path d="M0.00104904 22.0948C0.00209666 22.4103 0.00937761 22.7241 0.0235205 23.0364V40.8412L4.94581 35.9189C8.97443 40.8501 15.103 43.9997 21.9675 43.9997C29.1112 43.9997 35.4577 40.5899 39.4696 35.3092L31.4013 27.1561C30.6106 28.6184 29.4874 29.8744 28.133 30.823C26.7244 31.9222 24.7286 32.821 21.9678 32.821C21.6343 32.821 21.3768 32.782 21.1877 32.7086C17.767 32.4386 14.8019 30.5508 13.0561 27.8108L18.7672 22.0997C11.5333 22.1281 3.36139 22.1448 0.00167761 22.0961" fill="#ABABAB"/>
</svg>
