<svg width="266" height="70" viewBox="0 0 266 70" fill="none" xmlns="http://www.w3.org/2000/svg">
<g filter="url(#filter0_d_706_274)">
<rect x="5" y="5" width="256" height="60" rx="3" fill="#F9F9F9"/>
<rect x="4.5" y="4.5" width="257" height="61" rx="3.5" stroke="#E2E2E2"/>
<rect width="186" height="60" transform="translate(75 5)" fill="#4A90E2"/>
<path d="M93.0693 25.4521V33.6406H91.8887V24.1318H92.9678L93.0693 25.4521ZM97.6968 27.5088V27.6421C97.6968 28.1414 97.6375 28.6048 97.519 29.0322C97.4006 29.4554 97.2271 29.8236 96.9985 30.1367C96.7743 30.4499 96.4971 30.6932 96.167 30.8667C95.8369 31.0402 95.4582 31.127 95.0308 31.127C94.5949 31.127 94.2098 31.055 93.8755 30.9111C93.5412 30.7673 93.2576 30.5578 93.0249 30.2827C92.7922 30.0076 92.606 29.6776 92.4663 29.2925C92.3309 28.9074 92.2378 28.4736 92.187 27.9912V27.2803C92.2378 26.7725 92.333 26.3175 92.4727 25.9155C92.6123 25.5135 92.7964 25.1707 93.0249 24.8872C93.2576 24.5994 93.5391 24.3815 93.8691 24.2334C94.1992 24.0811 94.5801 24.0049 95.0117 24.0049C95.4434 24.0049 95.8263 24.0895 96.1606 24.2588C96.495 24.4238 96.7764 24.6608 97.0049 24.9697C97.2334 25.2786 97.4048 25.6489 97.519 26.0806C97.6375 26.508 97.6968 26.984 97.6968 27.5088ZM96.5161 27.6421V27.5088C96.5161 27.166 96.4801 26.8444 96.4082 26.5439C96.3363 26.2393 96.2241 25.9727 96.0718 25.7441C95.9237 25.5114 95.7332 25.3294 95.5005 25.1982C95.2677 25.0628 94.9906 24.9951 94.6689 24.9951C94.3727 24.9951 94.1146 25.0459 93.8945 25.1475C93.6787 25.249 93.4946 25.3866 93.3423 25.5601C93.1899 25.7293 93.0651 25.924 92.9678 26.144C92.8747 26.3599 92.8049 26.5841 92.7583 26.8169V28.4609C92.8429 28.7572 92.9614 29.0365 93.1138 29.2988C93.2661 29.557 93.4692 29.7664 93.7231 29.9272C93.9771 30.0838 94.2965 30.1621 94.6816 30.1621C94.999 30.1621 95.272 30.0965 95.5005 29.9653C95.7332 29.8299 95.9237 29.6458 96.0718 29.4131C96.2241 29.1803 96.3363 28.9137 96.4082 28.6133C96.4801 28.3086 96.5161 27.9849 96.5161 27.6421ZM100.369 25.2109V31H99.1948V24.1318H100.337L100.369 25.2109ZM102.515 24.0938L102.508 25.1855C102.411 25.1644 102.318 25.1517 102.229 25.1475C102.144 25.139 102.047 25.1348 101.937 25.1348C101.666 25.1348 101.427 25.1771 101.22 25.2617C101.012 25.3464 100.837 25.4648 100.693 25.6172C100.549 25.7695 100.435 25.9515 100.35 26.1631C100.27 26.3704 100.217 26.599 100.191 26.8486L99.8613 27.0391C99.8613 26.6243 99.9015 26.235 99.9819 25.8711C100.067 25.5072 100.196 25.1855 100.369 24.9062C100.543 24.6227 100.763 24.4027 101.029 24.2461C101.3 24.0853 101.622 24.0049 101.994 24.0049C102.079 24.0049 102.176 24.0155 102.286 24.0366C102.396 24.0535 102.472 24.0726 102.515 24.0938ZM103.162 27.6421V27.4961C103.162 27.001 103.234 26.5418 103.378 26.1187C103.522 25.6912 103.729 25.321 104 25.0078C104.271 24.6904 104.599 24.445 104.984 24.2715C105.369 24.0938 105.801 24.0049 106.279 24.0049C106.761 24.0049 107.195 24.0938 107.58 24.2715C107.969 24.445 108.299 24.6904 108.57 25.0078C108.845 25.321 109.055 25.6912 109.199 26.1187C109.343 26.5418 109.415 27.001 109.415 27.4961V27.6421C109.415 28.1372 109.343 28.5964 109.199 29.0195C109.055 29.4427 108.845 29.813 108.57 30.1304C108.299 30.4435 107.972 30.689 107.586 30.8667C107.206 31.0402 106.774 31.127 106.292 31.127C105.809 31.127 105.375 31.0402 104.99 30.8667C104.605 30.689 104.275 30.4435 104 30.1304C103.729 29.813 103.522 29.4427 103.378 29.0195C103.234 28.5964 103.162 28.1372 103.162 27.6421ZM104.336 27.4961V27.6421C104.336 27.9849 104.377 28.3086 104.457 28.6133C104.537 28.9137 104.658 29.1803 104.819 29.4131C104.984 29.6458 105.189 29.8299 105.435 29.9653C105.68 30.0965 105.966 30.1621 106.292 30.1621C106.613 30.1621 106.895 30.0965 107.136 29.9653C107.381 29.8299 107.584 29.6458 107.745 29.4131C107.906 29.1803 108.027 28.9137 108.107 28.6133C108.192 28.3086 108.234 27.9849 108.234 27.6421V27.4961C108.234 27.1576 108.192 26.8381 108.107 26.5376C108.027 26.2329 107.904 25.9642 107.739 25.7314C107.578 25.4945 107.375 25.3083 107.129 25.1729C106.888 25.0374 106.605 24.9697 106.279 24.9697C105.957 24.9697 105.674 25.0374 105.428 25.1729C105.187 25.3083 104.984 25.4945 104.819 25.7314C104.658 25.9642 104.537 26.2329 104.457 26.5376C104.377 26.8381 104.336 27.1576 104.336 27.4961ZM113.763 24.1318V25.0332H110.049V24.1318H113.763ZM111.306 22.4624H112.48V29.2988C112.48 29.5316 112.516 29.7072 112.588 29.8257C112.66 29.9442 112.753 30.0225 112.868 30.0605C112.982 30.0986 113.105 30.1177 113.236 30.1177C113.333 30.1177 113.435 30.1092 113.541 30.0923C113.651 30.0711 113.733 30.0542 113.788 30.0415L113.794 31C113.701 31.0296 113.579 31.0571 113.426 31.0825C113.278 31.1121 113.098 31.127 112.887 31.127C112.599 31.127 112.334 31.0698 112.093 30.9556C111.852 30.8413 111.66 30.6509 111.516 30.3843C111.376 30.1134 111.306 29.7495 111.306 29.2925V22.4624ZM117.99 31.127C117.512 31.127 117.078 31.0465 116.689 30.8857C116.304 30.7207 115.972 30.4901 115.692 30.1938C115.417 29.8976 115.206 29.5464 115.058 29.1401C114.91 28.7339 114.835 28.2896 114.835 27.8071V27.5405C114.835 26.9819 114.918 26.4847 115.083 26.0488C115.248 25.6087 115.472 25.2363 115.756 24.9316C116.039 24.627 116.361 24.3963 116.721 24.2397C117.08 24.0832 117.453 24.0049 117.838 24.0049C118.329 24.0049 118.752 24.0895 119.107 24.2588C119.467 24.4281 119.761 24.665 119.99 24.9697C120.218 25.2702 120.388 25.6257 120.498 26.0361C120.608 26.4424 120.663 26.8867 120.663 27.3691V27.896H115.534V26.9375H119.488V26.8486C119.471 26.5439 119.408 26.2477 119.298 25.96C119.192 25.6722 119.023 25.4352 118.79 25.249C118.557 25.0628 118.24 24.9697 117.838 24.9697C117.571 24.9697 117.326 25.0269 117.102 25.1411C116.877 25.2511 116.685 25.4162 116.524 25.6362C116.363 25.8563 116.238 26.125 116.149 26.4424C116.061 26.7598 116.016 27.1258 116.016 27.5405V27.8071C116.016 28.133 116.061 28.4398 116.149 28.7275C116.243 29.0111 116.376 29.2607 116.549 29.4766C116.727 29.6924 116.941 29.8617 117.19 29.9844C117.444 30.1071 117.732 30.1685 118.054 30.1685C118.468 30.1685 118.82 30.0838 119.107 29.9146C119.395 29.7453 119.647 29.5189 119.863 29.2354L120.574 29.8003C120.426 30.0246 120.237 30.2383 120.009 30.4414C119.78 30.6445 119.499 30.8096 119.165 30.9365C118.834 31.0635 118.443 31.127 117.99 31.127ZM124.782 30.1621C125.062 30.1621 125.32 30.105 125.557 29.9907C125.794 29.8765 125.988 29.7199 126.141 29.521C126.293 29.3179 126.38 29.0872 126.401 28.8291H127.518C127.497 29.2354 127.359 29.6141 127.105 29.9653C126.856 30.3123 126.528 30.5938 126.122 30.8096C125.715 31.0212 125.269 31.127 124.782 31.127C124.266 31.127 123.815 31.036 123.43 30.854C123.049 30.672 122.732 30.4224 122.478 30.105C122.228 29.7876 122.04 29.4237 121.913 29.0132C121.79 28.5985 121.729 28.1605 121.729 27.6992V27.4326C121.729 26.9714 121.79 26.5355 121.913 26.125C122.04 25.7103 122.228 25.3442 122.478 25.0269C122.732 24.7095 123.049 24.4598 123.43 24.2778C123.815 24.0959 124.266 24.0049 124.782 24.0049C125.32 24.0049 125.789 24.1149 126.191 24.335C126.593 24.5508 126.909 24.847 127.137 25.2236C127.37 25.596 127.497 26.0192 127.518 26.4932H126.401C126.38 26.2096 126.299 25.9536 126.16 25.7251C126.024 25.4966 125.838 25.3146 125.601 25.1792C125.368 25.0396 125.095 24.9697 124.782 24.9697C124.423 24.9697 124.12 25.0417 123.875 25.1855C123.633 25.3252 123.441 25.5156 123.297 25.7568C123.157 25.9938 123.056 26.2583 122.992 26.5503C122.933 26.8381 122.903 27.1322 122.903 27.4326V27.6992C122.903 27.9997 122.933 28.2959 122.992 28.5879C123.051 28.8799 123.151 29.1444 123.291 29.3813C123.434 29.6183 123.627 29.8088 123.868 29.9526C124.114 30.0923 124.418 30.1621 124.782 30.1621ZM131.714 24.1318V25.0332H128V24.1318H131.714ZM129.257 22.4624H130.432V29.2988C130.432 29.5316 130.468 29.7072 130.54 29.8257C130.611 29.9442 130.705 30.0225 130.819 30.0605C130.933 30.0986 131.056 30.1177 131.187 30.1177C131.284 30.1177 131.386 30.1092 131.492 30.0923C131.602 30.0711 131.684 30.0542 131.739 30.0415L131.746 31C131.653 31.0296 131.53 31.0571 131.377 31.0825C131.229 31.1121 131.049 31.127 130.838 31.127C130.55 31.127 130.286 31.0698 130.044 30.9556C129.803 30.8413 129.611 30.6509 129.467 30.3843C129.327 30.1134 129.257 29.7495 129.257 29.2925V22.4624ZM135.941 31.127C135.463 31.127 135.029 31.0465 134.64 30.8857C134.255 30.7207 133.923 30.4901 133.644 30.1938C133.368 29.8976 133.157 29.5464 133.009 29.1401C132.861 28.7339 132.787 28.2896 132.787 27.8071V27.5405C132.787 26.9819 132.869 26.4847 133.034 26.0488C133.199 25.6087 133.424 25.2363 133.707 24.9316C133.991 24.627 134.312 24.3963 134.672 24.2397C135.032 24.0832 135.404 24.0049 135.789 24.0049C136.28 24.0049 136.703 24.0895 137.059 24.2588C137.418 24.4281 137.712 24.665 137.941 24.9697C138.169 25.2702 138.339 25.6257 138.449 26.0361C138.559 26.4424 138.614 26.8867 138.614 27.3691V27.896H133.485V26.9375H137.439V26.8486C137.423 26.5439 137.359 26.2477 137.249 25.96C137.143 25.6722 136.974 25.4352 136.741 25.249C136.508 25.0628 136.191 24.9697 135.789 24.9697C135.522 24.9697 135.277 25.0269 135.053 25.1411C134.828 25.2511 134.636 25.4162 134.475 25.6362C134.314 25.8563 134.189 26.125 134.101 26.4424C134.012 26.7598 133.967 27.1258 133.967 27.5405V27.8071C133.967 28.133 134.012 28.4398 134.101 28.7275C134.194 29.0111 134.327 29.2607 134.5 29.4766C134.678 29.6924 134.892 29.8617 135.142 29.9844C135.396 30.1071 135.683 30.1685 136.005 30.1685C136.42 30.1685 136.771 30.0838 137.059 29.9146C137.346 29.7453 137.598 29.5189 137.814 29.2354L138.525 29.8003C138.377 30.0246 138.188 30.2383 137.96 30.4414C137.731 30.6445 137.45 30.8096 137.116 30.9365C136.786 31.0635 136.394 31.127 135.941 31.127ZM144.314 29.667V21.25H145.495V31H144.416L144.314 29.667ZM139.693 27.6421V27.5088C139.693 26.984 139.756 26.508 139.883 26.0806C140.014 25.6489 140.199 25.2786 140.436 24.9697C140.677 24.6608 140.962 24.4238 141.292 24.2588C141.627 24.0895 141.999 24.0049 142.41 24.0049C142.841 24.0049 143.218 24.0811 143.54 24.2334C143.865 24.3815 144.14 24.5994 144.365 24.8872C144.593 25.1707 144.773 25.5135 144.904 25.9155C145.035 26.3175 145.126 26.7725 145.177 27.2803V27.8643C145.131 28.3678 145.04 28.8206 144.904 29.2227C144.773 29.6247 144.593 29.9674 144.365 30.251C144.14 30.5345 143.865 30.7524 143.54 30.9048C143.214 31.0529 142.833 31.127 142.397 31.127C141.995 31.127 141.627 31.0402 141.292 30.8667C140.962 30.6932 140.677 30.4499 140.436 30.1367C140.199 29.8236 140.014 29.4554 139.883 29.0322C139.756 28.6048 139.693 28.1414 139.693 27.6421ZM140.874 27.5088V27.6421C140.874 27.9849 140.907 28.3065 140.975 28.6069C141.047 28.9074 141.157 29.1719 141.305 29.4004C141.453 29.6289 141.642 29.8088 141.87 29.9399C142.099 30.0669 142.372 30.1304 142.689 30.1304C143.078 30.1304 143.398 30.0479 143.647 29.8828C143.901 29.7178 144.104 29.4998 144.257 29.229C144.409 28.9582 144.528 28.6641 144.612 28.3467V26.8169C144.562 26.5841 144.487 26.3599 144.39 26.144C144.297 25.924 144.174 25.7293 144.022 25.5601C143.874 25.3866 143.69 25.249 143.47 25.1475C143.254 25.0459 142.998 24.9951 142.702 24.9951C142.38 24.9951 142.103 25.0628 141.87 25.1982C141.642 25.3294 141.453 25.5114 141.305 25.7441C141.157 25.9727 141.047 26.2393 140.975 26.5439C140.907 26.8444 140.874 27.166 140.874 27.5088ZM150.541 21.25H151.722V29.667L151.62 31H150.541V21.25ZM156.362 27.5088V27.6421C156.362 28.1414 156.303 28.6048 156.184 29.0322C156.066 29.4554 155.892 29.8236 155.664 30.1367C155.435 30.4499 155.156 30.6932 154.826 30.8667C154.496 31.0402 154.117 31.127 153.689 31.127C153.254 31.127 152.871 31.0529 152.541 30.9048C152.215 30.7524 151.94 30.5345 151.715 30.251C151.491 29.9674 151.311 29.6247 151.176 29.2227C151.045 28.8206 150.954 28.3678 150.903 27.8643V27.2803C150.954 26.7725 151.045 26.3175 151.176 25.9155C151.311 25.5135 151.491 25.1707 151.715 24.8872C151.94 24.5994 152.215 24.3815 152.541 24.2334C152.866 24.0811 153.245 24.0049 153.677 24.0049C154.108 24.0049 154.491 24.0895 154.826 24.2588C155.16 24.4238 155.439 24.6608 155.664 24.9697C155.892 25.2786 156.066 25.6489 156.184 26.0806C156.303 26.508 156.362 26.984 156.362 27.5088ZM155.181 27.6421V27.5088C155.181 27.166 155.149 26.8444 155.086 26.5439C155.022 26.2393 154.921 25.9727 154.781 25.7441C154.642 25.5114 154.458 25.3294 154.229 25.1982C154 25.0628 153.719 24.9951 153.385 24.9951C153.089 24.9951 152.83 25.0459 152.61 25.1475C152.395 25.249 152.21 25.3866 152.058 25.5601C151.906 25.7293 151.781 25.924 151.684 26.144C151.59 26.3599 151.521 26.5841 151.474 26.8169V28.3467C151.542 28.6429 151.652 28.9285 151.804 29.2036C151.961 29.4744 152.168 29.6966 152.426 29.8701C152.689 30.0436 153.012 30.1304 153.397 30.1304C153.715 30.1304 153.986 30.0669 154.21 29.9399C154.438 29.8088 154.623 29.6289 154.762 29.4004C154.906 29.1719 155.012 28.9074 155.08 28.6069C155.147 28.3065 155.181 27.9849 155.181 27.6421ZM159.701 30.2891L161.611 24.1318H162.868L160.113 32.0601C160.05 32.2293 159.965 32.4113 159.859 32.606C159.758 32.8049 159.627 32.9932 159.466 33.1709C159.305 33.3486 159.11 33.4925 158.882 33.6025C158.658 33.7168 158.389 33.7739 158.076 33.7739C157.983 33.7739 157.864 33.7612 157.72 33.7358C157.576 33.7104 157.475 33.6893 157.416 33.6724L157.409 32.7202C157.443 32.7244 157.496 32.7287 157.568 32.7329C157.644 32.7414 157.697 32.7456 157.727 32.7456C157.993 32.7456 158.22 32.7096 158.406 32.6377C158.592 32.57 158.749 32.4536 158.875 32.2886C159.007 32.1278 159.119 31.9056 159.212 31.6221L159.701 30.2891ZM158.298 24.1318L160.082 29.4639L160.386 30.7017L159.542 31.1333L157.016 24.1318H158.298ZM168.581 25.4395V31H167.051V24.1318H168.511L168.581 25.4395ZM170.682 24.0874L170.669 25.5093C170.576 25.4924 170.475 25.4797 170.365 25.4712C170.259 25.4627 170.153 25.4585 170.047 25.4585C169.785 25.4585 169.554 25.4966 169.355 25.5728C169.157 25.6447 168.989 25.7505 168.854 25.8901C168.723 26.0256 168.621 26.1906 168.549 26.3853C168.477 26.5799 168.435 26.7979 168.422 27.0391L168.073 27.0645C168.073 26.6328 168.116 26.2329 168.2 25.8647C168.285 25.4966 168.412 25.1729 168.581 24.8936C168.755 24.6143 168.97 24.3963 169.229 24.2397C169.491 24.0832 169.793 24.0049 170.136 24.0049C170.229 24.0049 170.329 24.0133 170.435 24.0303C170.545 24.0472 170.627 24.0662 170.682 24.0874ZM174.542 31.127C174.034 31.127 173.575 31.0444 173.164 30.8794C172.758 30.7101 172.411 30.4753 172.123 30.1748C171.84 29.8743 171.622 29.521 171.469 29.1147C171.317 28.7085 171.241 28.2705 171.241 27.8008V27.5469C171.241 27.0094 171.319 26.5228 171.476 26.0869C171.632 25.651 171.85 25.2786 172.129 24.9697C172.409 24.6566 172.739 24.4175 173.12 24.2524C173.5 24.0874 173.913 24.0049 174.357 24.0049C174.848 24.0049 175.278 24.0874 175.646 24.2524C176.014 24.4175 176.319 24.6502 176.56 24.9507C176.806 25.2469 176.987 25.6003 177.106 26.0107C177.229 26.4212 177.29 26.874 177.29 27.3691V28.0229H171.983V26.9248H175.779V26.8042C175.771 26.5291 175.716 26.271 175.614 26.0298C175.517 25.7886 175.367 25.5939 175.164 25.4458C174.96 25.2977 174.69 25.2236 174.351 25.2236C174.097 25.2236 173.871 25.2786 173.672 25.3887C173.477 25.4945 173.314 25.6489 173.183 25.8521C173.052 26.0552 172.95 26.3006 172.878 26.5884C172.811 26.8719 172.777 27.1914 172.777 27.5469V27.8008C172.777 28.1012 172.817 28.3805 172.897 28.6387C172.982 28.8926 173.105 29.1147 173.266 29.3052C173.426 29.4956 173.621 29.6458 173.85 29.7559C174.078 29.8617 174.338 29.9146 174.63 29.9146C174.999 29.9146 175.326 29.8405 175.614 29.6924C175.902 29.5443 176.152 29.3348 176.363 29.064L177.169 29.8447C177.021 30.0605 176.829 30.2679 176.592 30.4668C176.355 30.6615 176.065 30.8201 175.722 30.9429C175.384 31.0656 174.99 31.127 174.542 31.127ZM184.095 27.9912H185.682C185.631 28.5964 185.462 29.1359 185.174 29.6099C184.886 30.0796 184.482 30.4499 183.961 30.7207C183.441 30.9915 182.808 31.127 182.063 31.127C181.492 31.127 180.978 31.0254 180.521 30.8223C180.064 30.6149 179.673 30.3229 179.347 29.9463C179.021 29.5654 178.771 29.1063 178.598 28.5688C178.428 28.0314 178.344 27.4305 178.344 26.7661V25.998C178.344 25.3337 178.431 24.7327 178.604 24.1953C178.782 23.6579 179.036 23.1987 179.366 22.8179C179.696 22.4328 180.091 22.1387 180.553 21.9355C181.018 21.7324 181.541 21.6309 182.121 21.6309C182.857 21.6309 183.479 21.7663 183.987 22.0371C184.495 22.3079 184.888 22.6825 185.167 23.1606C185.451 23.6388 185.625 24.1868 185.688 24.8047H184.101C184.059 24.4069 183.966 24.0662 183.822 23.7827C183.682 23.4992 183.475 23.2834 183.2 23.1353C182.925 22.9829 182.565 22.9067 182.121 22.9067C181.757 22.9067 181.439 22.9744 181.168 23.1099C180.898 23.2453 180.671 23.4442 180.489 23.7065C180.307 23.9689 180.17 24.2926 180.077 24.6777C179.988 25.0586 179.943 25.4945 179.943 25.9854V26.7661C179.943 27.2316 179.984 27.6548 180.064 28.0356C180.149 28.4123 180.276 28.736 180.445 29.0068C180.618 29.2777 180.838 29.4871 181.105 29.6353C181.372 29.7834 181.691 29.8574 182.063 29.8574C182.516 29.8574 182.882 29.7855 183.162 29.6416C183.445 29.4977 183.659 29.2882 183.803 29.0132C183.951 28.7339 184.048 28.3932 184.095 27.9912ZM190.728 22.9893L187.967 31H186.297L189.776 21.7578H190.842L190.728 22.9893ZM193.039 31L190.271 22.9893L190.15 21.7578H191.223L194.714 31H193.039ZM192.905 27.5723V28.8354H187.878V27.5723H192.905ZM199.259 27.5532H196.854V26.29H199.259C199.678 26.29 200.017 26.2223 200.275 26.0869C200.533 25.9515 200.721 25.7653 200.84 25.5283C200.963 25.2871 201.024 25.012 201.024 24.7031C201.024 24.4111 200.963 24.1382 200.84 23.8843C200.721 23.6261 200.533 23.4188 200.275 23.2622C200.017 23.1056 199.678 23.0273 199.259 23.0273H197.342V31H195.749V21.7578H199.259C199.974 21.7578 200.582 21.8848 201.081 22.1387C201.585 22.3883 201.968 22.7354 202.23 23.1797C202.492 23.6198 202.624 24.1234 202.624 24.6904C202.624 25.2871 202.492 25.7992 202.23 26.2266C201.968 26.654 201.585 26.9819 201.081 27.2104C200.582 27.439 199.974 27.5532 199.259 27.5532ZM207.854 21.7578V31H206.273V21.7578H207.854ZM210.755 21.7578V23.0273H203.398V21.7578H210.755ZM217.255 27.9912H218.842C218.791 28.5964 218.622 29.1359 218.334 29.6099C218.046 30.0796 217.642 30.4499 217.122 30.7207C216.601 30.9915 215.968 31.127 215.224 31.127C214.652 31.127 214.138 31.0254 213.681 30.8223C213.224 30.6149 212.833 30.3229 212.507 29.9463C212.181 29.5654 211.931 29.1063 211.758 28.5688C211.589 28.0314 211.504 27.4305 211.504 26.7661V25.998C211.504 25.3337 211.591 24.7327 211.764 24.1953C211.942 23.6579 212.196 23.1987 212.526 22.8179C212.856 22.4328 213.252 22.1387 213.713 21.9355C214.178 21.7324 214.701 21.6309 215.281 21.6309C216.017 21.6309 216.639 21.7663 217.147 22.0371C217.655 22.3079 218.048 22.6825 218.328 23.1606C218.611 23.6388 218.785 24.1868 218.848 24.8047H217.261C217.219 24.4069 217.126 24.0662 216.982 23.7827C216.842 23.4992 216.635 23.2834 216.36 23.1353C216.085 22.9829 215.725 22.9067 215.281 22.9067C214.917 22.9067 214.599 22.9744 214.329 23.1099C214.058 23.2453 213.831 23.4442 213.649 23.7065C213.467 23.9689 213.33 24.2926 213.237 24.6777C213.148 25.0586 213.104 25.4945 213.104 25.9854V26.7661C213.104 27.2316 213.144 27.6548 213.224 28.0356C213.309 28.4123 213.436 28.736 213.605 29.0068C213.778 29.2777 213.999 29.4871 214.265 29.6353C214.532 29.7834 214.851 29.8574 215.224 29.8574C215.676 29.8574 216.042 29.7855 216.322 29.6416C216.605 29.4977 216.819 29.2882 216.963 29.0132C217.111 28.7339 217.208 28.3932 217.255 27.9912ZM226.396 25.6172V26.8804H221.489V25.6172H226.396ZM221.882 21.7578V31H220.289V21.7578H221.882ZM227.621 21.7578V31H226.034V21.7578H227.621ZM233.232 22.9893L230.471 31H228.801L232.28 21.7578H233.346L233.232 22.9893ZM235.542 31L232.775 22.9893L232.654 21.7578H233.727L237.218 31H235.542ZM235.409 27.5723V28.8354H230.382V27.5723H235.409Z" fill="white"/>
<path d="M94.4473 46.2119H92.5479V45.4453H94.4473C94.8151 45.4453 95.113 45.3867 95.3408 45.2695C95.5687 45.1523 95.7347 44.9896 95.8389 44.7812C95.9463 44.5729 96 44.3353 96 44.0684C96 43.8242 95.9463 43.5947 95.8389 43.3799C95.7347 43.165 95.5687 42.9925 95.3408 42.8623C95.113 42.7288 94.8151 42.6621 94.4473 42.6621H92.7676V49H91.8252V41.8906H94.4473C94.9844 41.8906 95.4385 41.9834 95.8096 42.1689C96.1807 42.3545 96.4622 42.6117 96.6543 42.9404C96.8464 43.266 96.9424 43.6387 96.9424 44.0586C96.9424 44.5143 96.8464 44.9033 96.6543 45.2256C96.4622 45.5479 96.1807 45.7936 95.8096 45.9629C95.4385 46.1289 94.9844 46.2119 94.4473 46.2119ZM98.8004 44.5469V49H97.8971V43.7168H98.776L98.8004 44.5469ZM100.451 43.6875L100.446 44.5273C100.371 44.5111 100.299 44.5013 100.231 44.498C100.166 44.4915 100.091 44.4883 100.006 44.4883C99.7981 44.4883 99.6142 44.5208 99.4547 44.5859C99.2952 44.651 99.1601 44.7422 99.0494 44.8594C98.9387 44.9766 98.8508 45.1165 98.7857 45.2793C98.7239 45.4388 98.6832 45.6146 98.6637 45.8066L98.4098 45.9531C98.4098 45.6341 98.4407 45.3346 98.5025 45.0547C98.5676 44.7747 98.6669 44.5273 98.8004 44.3125C98.9339 44.0944 99.1031 43.9251 99.3082 43.8047C99.5165 43.681 99.7639 43.6191 100.05 43.6191C100.115 43.6191 100.19 43.6273 100.275 43.6436C100.36 43.6566 100.418 43.6712 100.451 43.6875ZM102.167 43.7168V49H101.259V43.7168H102.167ZM101.191 42.3154C101.191 42.1689 101.235 42.0452 101.322 41.9443C101.414 41.8434 101.547 41.793 101.723 41.793C101.895 41.793 102.027 41.8434 102.118 41.9443C102.213 42.0452 102.26 42.1689 102.26 42.3154C102.26 42.4554 102.213 42.5758 102.118 42.6768C102.027 42.7744 101.895 42.8232 101.723 42.8232C101.547 42.8232 101.414 42.7744 101.322 42.6768C101.235 42.5758 101.191 42.4554 101.191 42.3154ZM105.124 48.1846L106.569 43.7168H107.492L105.593 49H104.987L105.124 48.1846ZM103.918 43.7168L105.407 48.209L105.51 49H104.904L102.99 43.7168H103.918ZM111.298 48.0967V45.377C111.298 45.1686 111.256 44.988 111.171 44.835C111.09 44.6787 110.966 44.5583 110.8 44.4736C110.634 44.389 110.429 44.3467 110.185 44.3467C109.957 44.3467 109.757 44.3857 109.584 44.4639C109.415 44.542 109.282 44.6445 109.184 44.7715C109.09 44.8984 109.042 45.0352 109.042 45.1816H108.139C108.139 44.9928 108.188 44.8057 108.286 44.6201C108.383 44.4346 108.523 44.2669 108.705 44.1172C108.891 43.9642 109.112 43.8438 109.37 43.7559C109.63 43.6647 109.92 43.6191 110.239 43.6191C110.623 43.6191 110.961 43.6842 111.254 43.8145C111.551 43.9447 111.782 44.1416 111.948 44.4053C112.117 44.6657 112.202 44.9928 112.202 45.3867V47.8477C112.202 48.0234 112.216 48.2106 112.246 48.4092C112.278 48.6077 112.325 48.7786 112.387 48.9219V49H111.445C111.399 48.8958 111.363 48.7575 111.337 48.585C111.311 48.4092 111.298 48.2464 111.298 48.0967ZM111.454 45.7969L111.464 46.4316H110.551C110.294 46.4316 110.065 46.4528 109.863 46.4951C109.661 46.5342 109.492 46.5944 109.355 46.6758C109.218 46.7572 109.114 46.8597 109.042 46.9834C108.971 47.1038 108.935 47.2454 108.935 47.4082C108.935 47.5742 108.972 47.7256 109.047 47.8623C109.122 47.999 109.234 48.1081 109.384 48.1895C109.537 48.2676 109.724 48.3066 109.946 48.3066C110.222 48.3066 110.467 48.248 110.678 48.1309C110.89 48.0137 111.057 47.8704 111.181 47.7012C111.308 47.5319 111.376 47.3675 111.386 47.208L111.772 47.6426C111.749 47.7793 111.687 47.9307 111.586 48.0967C111.485 48.2627 111.35 48.4222 111.181 48.5752C111.015 48.7249 110.816 48.8503 110.585 48.9512C110.357 49.0488 110.1 49.0977 109.814 49.0977C109.456 49.0977 109.142 49.0277 108.871 48.8877C108.605 48.7477 108.396 48.5605 108.246 48.3262C108.1 48.0885 108.027 47.8232 108.027 47.5303C108.027 47.2471 108.082 46.998 108.193 46.7832C108.303 46.5651 108.463 46.3844 108.671 46.2412C108.88 46.0947 109.13 45.984 109.423 45.9092C109.716 45.8343 110.043 45.7969 110.405 45.7969H111.454ZM115.637 48.3555C115.852 48.3555 116.05 48.3115 116.232 48.2236C116.415 48.1357 116.564 48.0153 116.682 47.8623C116.799 47.7061 116.866 47.5286 116.882 47.3301H117.741C117.725 47.6426 117.619 47.9339 117.424 48.2041C117.232 48.471 116.979 48.6875 116.667 48.8535C116.354 49.0163 116.011 49.0977 115.637 49.0977C115.24 49.0977 114.893 49.0277 114.597 48.8877C114.304 48.7477 114.06 48.5557 113.864 48.3115C113.672 48.0674 113.527 47.7874 113.43 47.4717C113.335 47.1527 113.288 46.8158 113.288 46.4609V46.2559C113.288 45.901 113.335 45.5658 113.43 45.25C113.527 44.931 113.672 44.6494 113.864 44.4053C114.06 44.1611 114.304 43.9691 114.597 43.8291C114.893 43.6891 115.24 43.6191 115.637 43.6191C116.05 43.6191 116.411 43.7038 116.721 43.873C117.03 44.0391 117.272 44.2669 117.448 44.5566C117.627 44.8431 117.725 45.1686 117.741 45.5332H116.882C116.866 45.3151 116.804 45.1182 116.696 44.9424C116.592 44.7666 116.449 44.6266 116.267 44.5225C116.088 44.415 115.878 44.3613 115.637 44.3613C115.36 44.3613 115.127 44.4167 114.938 44.5273C114.753 44.6348 114.605 44.7812 114.494 44.9668C114.387 45.1491 114.309 45.3525 114.26 45.5771C114.214 45.7985 114.191 46.0247 114.191 46.2559V46.4609C114.191 46.6921 114.214 46.9199 114.26 47.1445C114.305 47.3691 114.382 47.5726 114.489 47.7549C114.6 47.9372 114.748 48.0837 114.934 48.1943C115.122 48.3018 115.357 48.3555 115.637 48.3555ZM120.141 48.4531L121.611 43.7168H122.578L120.459 49.8154C120.41 49.9456 120.345 50.0856 120.263 50.2354C120.185 50.3883 120.084 50.5332 119.961 50.6699C119.837 50.8066 119.687 50.9173 119.511 51.002C119.339 51.0898 119.132 51.1338 118.891 51.1338C118.82 51.1338 118.728 51.124 118.618 51.1045C118.507 51.085 118.429 51.0687 118.383 51.0557L118.379 50.3232C118.405 50.3265 118.445 50.3298 118.501 50.333C118.559 50.3395 118.6 50.3428 118.623 50.3428C118.828 50.3428 119.002 50.3151 119.145 50.2598C119.288 50.2077 119.409 50.1182 119.506 49.9912C119.607 49.8675 119.694 49.6966 119.765 49.4785L120.141 48.4531ZM119.062 43.7168L120.434 47.8184L120.669 48.7705L120.019 49.1025L118.076 43.7168H119.062ZM127.554 45.6064V46.3486H125.171V45.6064H127.554ZM133.286 41.8906V49H132.358V41.8906H133.286ZM135.571 41.8906V42.6621H130.078V41.8906H135.571ZM138.093 49.0977C137.726 49.0977 137.392 49.0358 137.092 48.9121C136.796 48.7852 136.541 48.6077 136.326 48.3799C136.114 48.152 135.951 47.8818 135.838 47.5693C135.724 47.2568 135.667 46.915 135.667 46.5439V46.3389C135.667 45.9092 135.73 45.5267 135.857 45.1914C135.984 44.8529 136.157 44.5664 136.375 44.332C136.593 44.0977 136.84 43.9202 137.117 43.7998C137.393 43.6794 137.68 43.6191 137.976 43.6191C138.354 43.6191 138.679 43.6842 138.953 43.8145C139.229 43.9447 139.456 44.127 139.631 44.3613C139.807 44.5924 139.937 44.8659 140.022 45.1816C140.107 45.4941 140.149 45.8359 140.149 46.207V46.6123H136.204V45.875H139.246V45.8066C139.233 45.5723 139.184 45.3444 139.099 45.123C139.018 44.9017 138.888 44.7194 138.709 44.5762C138.53 44.4329 138.285 44.3613 137.976 44.3613C137.771 44.3613 137.582 44.4053 137.41 44.4932C137.237 44.5778 137.089 44.7048 136.965 44.874C136.842 45.0433 136.746 45.25 136.677 45.4941C136.609 45.7383 136.575 46.0199 136.575 46.3389V46.5439C136.575 46.7946 136.609 47.0306 136.677 47.252C136.749 47.4701 136.851 47.6621 136.985 47.8281C137.122 47.9941 137.286 48.1243 137.478 48.2188C137.673 48.3132 137.895 48.3604 138.142 48.3604C138.461 48.3604 138.731 48.2952 138.953 48.165C139.174 48.0348 139.368 47.8607 139.534 47.6426L140.081 48.0771C139.967 48.2497 139.822 48.4141 139.646 48.5703C139.47 48.7266 139.254 48.8535 138.997 48.9512C138.743 49.0488 138.442 49.0977 138.093 49.0977ZM142.007 44.5469V49H141.104V43.7168H141.983L142.007 44.5469ZM143.657 43.6875L143.653 44.5273C143.578 44.5111 143.506 44.5013 143.438 44.498C143.373 44.4915 143.298 44.4883 143.213 44.4883C143.005 44.4883 142.821 44.5208 142.661 44.5859C142.502 44.651 142.367 44.7422 142.256 44.8594C142.145 44.9766 142.057 45.1165 141.992 45.2793C141.931 45.4388 141.89 45.6146 141.87 45.8066L141.616 45.9531C141.616 45.6341 141.647 45.3346 141.709 45.0547C141.774 44.7747 141.874 44.5273 142.007 44.3125C142.14 44.0944 142.31 43.9251 142.515 43.8047C142.723 43.681 142.971 43.6191 143.257 43.6191C143.322 43.6191 143.397 43.6273 143.482 43.6436C143.566 43.6566 143.625 43.6712 143.657 43.6875ZM145.291 44.7666V49H144.383V43.7168H145.242L145.291 44.7666ZM145.105 46.1582L144.685 46.1436C144.689 45.7822 144.736 45.4486 144.827 45.1426C144.918 44.8333 145.053 44.5648 145.232 44.3369C145.411 44.109 145.634 43.9333 145.901 43.8096C146.168 43.6826 146.477 43.6191 146.829 43.6191C147.076 43.6191 147.304 43.6549 147.513 43.7266C147.721 43.7949 147.901 43.904 148.054 44.0537C148.207 44.2035 148.326 44.3955 148.411 44.6299C148.496 44.8643 148.538 45.1475 148.538 45.4795V49H147.635V45.5234C147.635 45.2467 147.587 45.0254 147.493 44.8594C147.402 44.6934 147.272 44.5729 147.102 44.498C146.933 44.4199 146.735 44.3809 146.507 44.3809C146.24 44.3809 146.017 44.4281 145.838 44.5225C145.659 44.6169 145.515 44.7471 145.408 44.9131C145.301 45.0791 145.222 45.2695 145.174 45.4844C145.128 45.696 145.105 45.9206 145.105 46.1582ZM148.528 45.6602L147.923 45.8457C147.926 45.556 147.973 45.2777 148.064 45.0107C148.159 44.7438 148.294 44.5062 148.47 44.2979C148.649 44.0895 148.868 43.9251 149.129 43.8047C149.389 43.681 149.687 43.6191 150.022 43.6191C150.305 43.6191 150.556 43.6566 150.774 43.7314C150.996 43.8063 151.181 43.9219 151.331 44.0781C151.484 44.2311 151.599 44.4281 151.678 44.6689C151.756 44.9098 151.795 45.1963 151.795 45.5283V49H150.887V45.5186C150.887 45.2223 150.839 44.9928 150.745 44.8301C150.654 44.6641 150.524 44.5485 150.354 44.4834C150.188 44.415 149.99 44.3809 149.759 44.3809C149.56 44.3809 149.384 44.415 149.231 44.4834C149.078 44.5518 148.95 44.6462 148.846 44.7666C148.741 44.8838 148.662 45.0189 148.606 45.1719C148.554 45.3249 148.528 45.4876 148.528 45.6602ZM156.138 47.5986C156.138 47.4684 156.109 47.348 156.05 47.2373C155.995 47.1234 155.879 47.0208 155.704 46.9297C155.531 46.8353 155.271 46.7539 154.922 46.6855C154.629 46.6237 154.364 46.5505 154.126 46.4658C153.892 46.3812 153.692 46.2786 153.526 46.1582C153.363 46.0378 153.238 45.8962 153.15 45.7334C153.062 45.5706 153.018 45.3802 153.018 45.1621C153.018 44.9538 153.064 44.7568 153.155 44.5713C153.249 44.3857 153.381 44.2214 153.55 44.0781C153.723 43.9349 153.929 43.8226 154.17 43.7412C154.411 43.6598 154.68 43.6191 154.976 43.6191C155.399 43.6191 155.76 43.694 156.06 43.8438C156.359 43.9935 156.589 44.1937 156.748 44.4443C156.908 44.6917 156.988 44.9668 156.988 45.2695H156.084C156.084 45.123 156.04 44.9814 155.953 44.8447C155.868 44.7048 155.743 44.5892 155.577 44.498C155.414 44.4069 155.214 44.3613 154.976 44.3613C154.725 44.3613 154.522 44.4004 154.366 44.4785C154.213 44.5534 154.1 44.6494 154.029 44.7666C153.96 44.8838 153.926 45.0075 153.926 45.1377C153.926 45.2354 153.942 45.3232 153.975 45.4014C154.011 45.4762 154.073 45.5462 154.161 45.6113C154.248 45.6732 154.372 45.7318 154.532 45.7871C154.691 45.8424 154.895 45.8978 155.142 45.9531C155.575 46.0508 155.931 46.168 156.211 46.3047C156.491 46.4414 156.7 46.609 156.836 46.8076C156.973 47.0062 157.041 47.2471 157.041 47.5303C157.041 47.7614 156.993 47.973 156.895 48.165C156.801 48.3571 156.662 48.5231 156.48 48.6631C156.301 48.7998 156.086 48.9072 155.835 48.9854C155.588 49.0602 155.31 49.0977 155 49.0977C154.535 49.0977 154.141 49.0146 153.819 48.8486C153.496 48.6826 153.252 48.4678 153.086 48.2041C152.92 47.9404 152.837 47.6621 152.837 47.3691H153.746C153.759 47.6165 153.83 47.8135 153.96 47.96C154.091 48.1032 154.25 48.2057 154.439 48.2676C154.628 48.3262 154.815 48.3555 155 48.3555C155.248 48.3555 155.454 48.3229 155.621 48.2578C155.79 48.1927 155.918 48.1032 156.006 47.9893C156.094 47.8753 156.138 47.7451 156.138 47.5986Z" fill="white"/>
</g>
<defs>
<filter id="filter0_d_706_274" x="0" y="0" width="266" height="70" filterUnits="userSpaceOnUse" color-interpolation-filters="sRGB">
<feFlood flood-opacity="0" result="BackgroundImageFix"/>
<feColorMatrix in="SourceAlpha" type="matrix" values="0 0 0 0 0 0 0 0 0 0 0 0 0 0 0 0 0 0 127 0" result="hardAlpha"/>
<feOffset/>
<feGaussianBlur stdDeviation="2"/>
<feColorMatrix type="matrix" values="0 0 0 0 0 0 0 0 0 0 0 0 0 0 0 0 0 0 0.12 0"/>
<feBlend mode="normal" in2="BackgroundImageFix" result="effect1_dropShadow_706_274"/>
<feBlend mode="normal" in="SourceGraphic" in2="effect1_dropShadow_706_274" result="shape"/>
</filter>
</defs>
</svg>
